HIERARCHY
ROOT mixamorig:Hips
{
	OFFSET -0.000008 104.274872 1.554316
	CHANNELS 6 Xposition Yposition Zposition Xrotation Yrotation Zrotation
	JOINT mixamorig:Spine
	{
		OFFSET -0.000005 10.181595 0.131519
		CHANNELS 6 Xposition Yposition Zposition Xrotation Yrotation Zrotation
		JOINT mixamorig:Spine1
		{
			OFFSET -0.000000 9.893959 -1.470707
			CHANNELS 6 Xposition Yposition Zposition Xrotation Yrotation Zrotation
			JOINT mixamorig:Spine2
			{
				OFFSET -0.000000 9.220757 -1.370641
				CHANNELS 6 Xposition Yposition Zposition Xrotation Yrotation Zrotation
				JOINT mixamorig:Neck
				{
					OFFSET 0.000001 16.740417 -2.049036
					CHANNELS 6 Xposition Yposition Zposition Xrotation Yrotation Zrotation
					JOINT mixamorig:Head
					{
						OFFSET 0.000000 9.617874 1.685006
						CHANNELS 6 Xposition Yposition Zposition Xrotation Yrotation Zrotation
						JOINT mixamorig:HeadTop_End
						{
							OFFSET 0.000002 22.037354 7.501101
							CHANNELS 6 Xposition Yposition Zposition Xrotation Yrotation Zrotation
							End Site
							{
								OFFSET 0.000168 2310.654297 -282.823242
							}
						}
					}
				}
				JOINT mixamorig:RightShoulder
				{
					OFFSET -4.569970 11.014908 -2.160885
					CHANNELS 6 Xposition Yposition Zposition Xrotation Yrotation Zrotation
					JOINT mixamorig:RightArm
					{
						OFFSET -10.592851 -0.524811 -2.232101
						CHANNELS 6 Xposition Yposition Zposition Xrotation Yrotation Zrotation
						JOINT mixamorig:RightForeArm
						{
							OFFSET -27.841511 0.000031 -0.000004
							CHANNELS 6 Xposition Yposition Zposition Xrotation Yrotation Zrotation
							JOINT mixamorig:RightHand
							{
								OFFSET -28.328831 -0.000015 0.000015
								CHANNELS 6 Xposition Yposition Zposition Xrotation Yrotation Zrotation
								JOINT mixamorig:RightHandThumb1
								{
									OFFSET -2.464806 -1.573990 2.681852
									CHANNELS 6 Xposition Yposition Zposition Xrotation Yrotation Zrotation
									JOINT mixamorig:RightHandThumb2
									{
										OFFSET -3.215179 -1.872803 1.924282
										CHANNELS 6 Xposition Yposition Zposition Xrotation Yrotation Zrotation
										JOINT mixamorig:RightHandThumb3
										{
											OFFSET -2.654831 -1.527969 1.512609
											CHANNELS 6 Xposition Yposition Zposition Xrotation Yrotation Zrotation
											JOINT mixamorig:RightHandThumb4
											{
												OFFSET -2.018814 -1.152008 1.108052
												CHANNELS 6 Xposition Yposition Zposition Xrotation Yrotation Zrotation
												End Site
												{
													OFFSET -188.809540 -114.533607 132.431396
												}
											}
										}
									}
								}
								JOINT mixamorig:RightHandIndex1
								{
									OFFSET -9.108284 -0.517868 2.259835
									CHANNELS 6 Xposition Yposition Zposition Xrotation Yrotation Zrotation
									JOINT mixamorig:RightHandIndex2
									{
										OFFSET -3.699989 0.000000 0.001215
										CHANNELS 6 Xposition Yposition Zposition Xrotation Yrotation Zrotation
										JOINT mixamorig:RightHandIndex3
										{
											OFFSET -2.850006 0.000031 -0.000522
											CHANNELS 6 Xposition Yposition Zposition Xrotation Yrotation Zrotation
											JOINT mixamorig:RightHandIndex4
											{
												OFFSET -2.772186 -0.000015 -0.000020
												CHANNELS 6 Xposition Yposition Zposition Xrotation Yrotation Zrotation
												End Site
												{
													OFFSET -277.218445 0.000000 -0.050231
												}
											}
										}
									}
								}
								JOINT mixamorig:RightHandMiddle1
								{
									OFFSET -9.532516 -0.000031 -0.000023
									CHANNELS 6 Xposition Yposition Zposition Xrotation Yrotation Zrotation
									JOINT mixamorig:RightHandMiddle2
									{
										OFFSET -3.700005 -0.000015 0.003713
										CHANNELS 6 Xposition Yposition Zposition Xrotation Yrotation Zrotation
										JOINT mixamorig:RightHandMiddle3
										{
											OFFSET -2.949974 0.000015 -0.002054
											CHANNELS 6 Xposition Yposition Zposition Xrotation Yrotation Zrotation
											JOINT mixamorig:RightHandMiddle4
											{
												OFFSET -2.946640 0.000000 -0.000156
												CHANNELS 6 Xposition Yposition Zposition Xrotation Yrotation Zrotation
												End Site
												{
													OFFSET -294.664337 0.000000 -0.113670
												}
											}
										}
									}
								}
								JOINT mixamorig:RightHandRing1
								{
									OFFSET -9.103600 -0.043076 -1.865134
									CHANNELS 6 Xposition Yposition Zposition Xrotation Yrotation Zrotation
									JOINT mixamorig:RightHandRing2
									{
										OFFSET -3.379288 0.000000 -0.001055
										CHANNELS 6 Xposition Yposition Zposition Xrotation Yrotation Zrotation
										JOINT mixamorig:RightHandRing3
										{
											OFFSET -2.889687 -0.000015 0.000379
											CHANNELS 6 Xposition Yposition Zposition Xrotation Yrotation Zrotation
											JOINT mixamorig:RightHandRing4
											{
												OFFSET -2.638809 -0.000015 0.000941
												CHANNELS 6 Xposition Yposition Zposition Xrotation Yrotation Zrotation
												End Site
												{
													OFFSET -263.880371 0.000000 0.516020
												}
											}
										}
									}
								}
								JOINT mixamorig:RightHandPinky1
								{
									OFFSET -8.076683 -0.486710 -3.806280
									CHANNELS 6 Xposition Yposition Zposition Xrotation Yrotation Zrotation
									JOINT mixamorig:RightHandPinky2
									{
										OFFSET -3.600014 -0.000015 -0.003747
										CHANNELS 6 Xposition Yposition Zposition Xrotation Yrotation Zrotation
										JOINT mixamorig:RightHandPinky3
										{
											OFFSET -2.099983 0.000000 -0.005739
											CHANNELS 6 Xposition Yposition Zposition Xrotation Yrotation Zrotation
											JOINT mixamorig:RightHandPinky4
											{
												OFFSET -2.115768 -0.000031 -0.003680
												CHANNELS 6 Xposition Yposition Zposition Xrotation Yrotation Zrotation
												End Site
												{
													OFFSET -211.577087 0.000000 -0.350686
												}
											}
										}
									}
								}
							}
						}
					}
				}
				JOINT mixamorig:LeftShoulder
				{
					OFFSET 4.570447 11.014725 -2.160855
					CHANNELS 6 Xposition Yposition Zposition Xrotation Yrotation Zrotation
					JOINT mixamorig:LeftArm
					{
						OFFSET 10.592371 -0.524597 -2.232119
						CHANNELS 6 Xposition Yposition Zposition Xrotation Yrotation Zrotation
						JOINT mixamorig:LeftForeArm
						{
							OFFSET 27.841532 -0.000031 0.000026
							CHANNELS 6 Xposition Yposition Zposition Xrotation Yrotation Zrotation
							JOINT mixamorig:LeftHand
							{
								OFFSET 28.328846 -0.000061 0.000022
								CHANNELS 6 Xposition Yposition Zposition Xrotation Yrotation Zrotation
								JOINT mixamorig:LeftHandThumb1
								{
									OFFSET 2.466141 -1.576172 2.681732
									CHANNELS 6 Xposition Yposition Zposition Xrotation Yrotation Zrotation
									JOINT mixamorig:LeftHandThumb2
									{
										OFFSET 3.217812 -1.872070 1.916482
										CHANNELS 6 Xposition Yposition Zposition Xrotation Yrotation Zrotation
										JOINT mixamorig:LeftHandThumb3
										{
											OFFSET 2.656029 -1.528778 1.514513
											CHANNELS 6 Xposition Yposition Zposition Xrotation Yrotation Zrotation
											JOINT mixamorig:LeftHandThumb4
											{
												OFFSET 2.020889 -1.154053 1.115139
												CHANNELS 6 Xposition Yposition Zposition Xrotation Yrotation Zrotation
												End Site
												{
													OFFSET 190.885437 -115.081749 130.048782
												}
											}
										}
									}
								}
								JOINT mixamorig:LeftHandIndex1
								{
									OFFSET 9.109314 -0.518021 2.259871
									CHANNELS 6 Xposition Yposition Zposition Xrotation Yrotation Zrotation
									JOINT mixamorig:LeftHandIndex2
									{
										OFFSET 3.699989 0.000000 -0.000322
										CHANNELS 6 Xposition Yposition Zposition Xrotation Yrotation Zrotation
										JOINT mixamorig:LeftHandIndex3
										{
											OFFSET 2.850006 0.000000 0.000352
											CHANNELS 6 Xposition Yposition Zposition Xrotation Yrotation Zrotation
											JOINT mixamorig:LeftHandIndex4
											{
												OFFSET 2.774864 -0.000031 -0.000027
												CHANNELS 6 Xposition Yposition Zposition Xrotation Yrotation Zrotation
												End Site
												{
													OFFSET 277.486267 0.000000 -0.009857
												}
											}
										}
									}
								}
								JOINT mixamorig:LeftHandMiddle1
								{
									OFFSET 9.533394 0.000061 0.000044
									CHANNELS 6 Xposition Yposition Zposition Xrotation Yrotation Zrotation
									JOINT mixamorig:LeftHandMiddle2
									{
										OFFSET 3.699989 -0.000015 -0.000231
										CHANNELS 6 Xposition Yposition Zposition Xrotation Yrotation Zrotation
										JOINT mixamorig:LeftHandMiddle3
										{
											OFFSET 2.949997 -0.000015 -0.000059
											CHANNELS 6 Xposition Yposition Zposition Xrotation Yrotation Zrotation
											JOINT mixamorig:LeftHandMiddle4
											{
												OFFSET 2.952896 0.000031 0.000063
												CHANNELS 6 Xposition Yposition Zposition Xrotation Yrotation Zrotation
												End Site
												{
													OFFSET 295.289337 0.000000 0.022810
												}
											}
										}
									}
								}
								JOINT mixamorig:LeftHandRing1
								{
									OFFSET 9.104523 -0.042999 -1.865074
									CHANNELS 6 Xposition Yposition Zposition Xrotation Yrotation Zrotation
									JOINT mixamorig:LeftHandRing2
									{
										OFFSET 3.150009 -0.000031 0.000043
										CHANNELS 6 Xposition Yposition Zposition Xrotation Yrotation Zrotation
										JOINT mixamorig:LeftHandRing3
										{
											OFFSET 2.949982 -0.000015 0.000040
											CHANNELS 6 Xposition Yposition Zposition Xrotation Yrotation Zrotation
											JOINT mixamorig:LeftHandRing4
											{
												OFFSET 2.644348 0.000000 0.000057
												CHANNELS 6 Xposition Yposition Zposition Xrotation Yrotation Zrotation
												End Site
												{
													OFFSET 264.434631 0.000000 0.012105
												}
											}
										}
									}
								}
								JOINT mixamorig:LeftHandPinky1
								{
									OFFSET 8.077789 -0.486847 -3.806259
									CHANNELS 6 Xposition Yposition Zposition Xrotation Yrotation Zrotation
									JOINT mixamorig:LeftHandPinky2
									{
										OFFSET 3.599953 0.000031 0.014727
										CHANNELS 6 Xposition Yposition Zposition Xrotation Yrotation Zrotation
										JOINT mixamorig:LeftHandPinky3
										{
											OFFSET 2.100021 0.000015 0.007705
											CHANNELS 6 Xposition Yposition Zposition Xrotation Yrotation Zrotation
											JOINT mixamorig:LeftHandPinky4
											{
												OFFSET 2.125504 0.000031 0.007517
												CHANNELS 6 Xposition Yposition Zposition Xrotation Yrotation Zrotation
												End Site
												{
													OFFSET 212.550781 0.000000 0.625752
												}
											}
										}
									}
								}
							}
						}
					}
				}
			}
		}
	}
	JOINT mixamorig:RightUpLeg
	{
		OFFSET -8.207787 -6.751648 -1.599560
		CHANNELS 6 Xposition Yposition Zposition Xrotation Yrotation Zrotation
		JOINT mixamorig:RightLeg
		{
			OFFSET -0.000002 -44.370117 0.345942
			CHANNELS 6 Xposition Yposition Zposition Xrotation Yrotation Zrotation
			JOINT mixamorig:RightFoot
			{
				OFFSET 0.000003 -44.423679 -3.043532
				CHANNELS 6 Xposition Yposition Zposition Xrotation Yrotation Zrotation
				JOINT mixamorig:RightToeBase
				{
					OFFSET -0.000002 -8.728671 10.710558
					CHANNELS 6 Xposition Yposition Zposition Xrotation Yrotation Zrotation
					JOINT mixamorig:RightToe_End
					{
						OFFSET -0.000001 -0.000679 9.278119
						CHANNELS 6 Xposition Yposition Zposition Xrotation Yrotation Zrotation
						End Site
						{
							OFFSET 0.000000 -0.067690 927.812134
						}
					}
				}
			}
		}
	}
	JOINT mixamorig:LeftUpLeg
	{
		OFFSET 8.207793 -6.751686 -1.599556
		CHANNELS 6 Xposition Yposition Zposition Xrotation Yrotation Zrotation
		JOINT mixamorig:LeftLeg
		{
			OFFSET -0.000004 -44.370014 0.346954
			CHANNELS 6 Xposition Yposition Zposition Xrotation Yrotation Zrotation
			JOINT mixamorig:LeftFoot
			{
				OFFSET -0.000001 -44.423672 -3.044401
				CHANNELS 6 Xposition Yposition Zposition Xrotation Yrotation Zrotation
				JOINT mixamorig:LeftToeBase
				{
					OFFSET -0.000002 -8.728669 10.710558
					CHANNELS 6 Xposition Yposition Zposition Xrotation Yrotation Zrotation
					JOINT mixamorig:LeftToe_End
					{
						OFFSET -0.000003 -0.000679 9.278133
						CHANNELS 6 Xposition Yposition Zposition Xrotation Yrotation Zrotation
						End Site
						{
							OFFSET 0.000000 -0.068021 927.813477
						}
					}
				}
			}
		}
	}
}
MOTION
Frames: 3
Frame Time: 0.033333
0.000006 104.270477 1.554256 0.000010 0.000003 -0.000113 -0.000005 10.181587 0.131522 0.000001 -0.000003 0.000084 -0.000000 9.893967 -1.470711 0.000001 0.000000 -0.000000 -0.000000 9.220802 -1.370642 0.000000 -0.000000 -0.000000 0.000001 16.740433 -2.049030 0.000000 -0.000000 -0.000000 0.000000 9.617859 1.685014 0.000000 0.000000 0.000000 0.000002 22.037384 7.501101 0.000000 -0.000000 0.000000 -4.569968 11.014880 -2.160881 0.000008 0.000001 -0.000038 -10.592876 -0.524693 -2.231988 73.619713 12.160194 -9.115307 -27.841524 0.000018 0.000531 -55.627899 122.378576 87.613207 -28.328829 0.000023 0.000025 -0.000321 -0.000045 0.000007 -2.464420 -1.573900 2.682376 -33.446432 -154.725136 20.617677 -3.215237 -1.872498 1.924634 149.014770 34.788192 34.775300 -2.654948 -1.527895 1.513087 153.876731 26.078354 -33.588261 -2.018826 -1.152020 1.108077 -0.000002 0.000001 0.000002 -9.108398 -0.517569 2.260166 106.562139 18.135418 -24.217670 -3.700063 0.000301 0.001538 103.796507 15.767664 -19.998664 -2.850106 0.000371 -0.000228 103.151525 12.054579 -15.161874 -2.772167 -0.000001 -0.000029 0.000000 -0.000001 -0.000001 -9.532585 0.000253 0.000303 103.647397 17.685829 -22.567498 -3.700072 0.000311 0.004020 102.594612 14.793969 -18.286300 -2.950062 0.000337 -0.001761 102.882805 12.188635 -15.249248 -2.946641 0.000001 -0.000156 -0.000000 0.000000 0.000000 -9.103704 -0.042781 -1.864813 102.547982 19.884489 -24.604375 -3.379335 0.000308 -0.000764 103.284871 13.020178 -16.433203 -2.889765 0.000352 0.000674 105.973704 7.773272 -10.359745 -2.638814 -0.000001 0.000945 -0.000001 -0.000000 -0.000001 -8.076761 -0.486401 -3.805989 95.037458 20.007917 -21.639048 -3.600065 0.000278 -0.003474 99.381616 10.429326 -11.852322 -2.100024 0.000317 -0.005423 101.046351 5.228753 -6.081308 -2.115766 -0.000070 -0.003680 -0.000001 -0.000000 -0.000004 4.570446 11.014691 -2.160851 -0.000018 0.000010 -0.000021 10.592359 -0.524536 -2.232279 67.035650 9.079310 -6.020536 27.841820 0.000105 -0.000197 94.362759 -63.506334 67.478902 28.328808 -0.000029 0.000016 0.000021 -0.000088 -0.000000 2.466233 -1.576076 2.681837 7.870558 164.733180 -97.091672 3.217836 -1.871773 1.916396 167.771671 -26.165183 22.653579 2.656103 -1.528673 1.514468 143.013738 -26.501716 53.216562 2.020884 -1.154075 1.115144 -0.000001 0.000004 -0.000001 9.109371 -0.517854 2.259760 86.473016 -17.488015 16.446243 3.700054 0.000166 -0.000452 85.415347 -15.377966 14.222832 2.850051 0.000195 0.000210 84.335713 -12.755692 11.560500 2.774873 -0.000028 -0.000022 -0.000000 0.000000 -0.000000 9.533468 0.000213 -0.000102 86.414877 -15.949918 14.984894 3.700049 0.000178 -0.000379 89.716632 -12.838888 12.773391 2.950071 0.000187 -0.000198 91.241219 -14.815466 15.139292 2.952874 -0.000016 0.000064 0.000001 0.000000 -0.000000 9.104577 -0.042851 -1.865227 84.680597 -15.181014 13.848672 3.150056 0.000204 -0.000103 90.703717 -12.594206 12.750432 2.950036 0.000198 -0.000072 94.221913 -12.852578 13.829051 2.644335 0.000028 0.000055 -0.000001 -0.000000 -0.000001 8.077835 -0.486731 -3.806392 74.834831 -17.540959 13.923572 3.600019 0.000165 0.014575 78.781321 -15.204588 12.939083 2.100054 0.000183 0.007561 82.103573 -13.508907 12.206349 2.125519 -0.000036 0.007512 -0.000001 -0.000001 -0.000003 -8.207786 -6.751667 -1.599560 -0.077001 -0.000003 0.000080 -0.000002 -44.370110 0.345938 0.153719 -0.000000 -0.000000 0.000000 -44.423679 -3.043532 -0.076700 0.000000 -0.000002 -0.000006 -8.728667 10.710559 -0.000009 -0.000000 -0.000000 -0.000001 -0.000679 9.278123 0.000000 -0.000000 -0.000000 8.207792 -6.751710 -1.599556 -0.074518 -0.000003 0.000081 -0.000002 -44.370014 0.346960 0.148822 0.000002 0.000000 -0.000001 -44.423664 -3.044403 -0.074314 0.000000 -0.000002 -0.000004 -8.728671 10.710558 0.000007 -0.000000 -0.000000 0.000000 -0.000680 9.278137 -0.000000 0.000000 -0.000001 
0.000006 104.270477 1.554256 0.000010 0.000003 -0.000113 -0.000005 10.181587 0.131522 0.000001 -0.000003 0.000084 -0.000000 9.893967 -1.470711 0.000001 0.000000 -0.000000 -0.000000 9.220802 -1.370642 0.000000 -0.000000 -0.000000 0.000001 16.740433 -2.049030 0.000000 -0.000000 -0.000000 0.000000 9.617859 1.685014 0.000000 0.000000 0.000000 0.000002 22.037384 7.501101 0.000000 -0.000000 0.000000 -4.569968 11.014880 -2.160881 0.000008 0.000001 -0.000038 -10.592879 -0.524705 -2.231977 73.473923 15.091603 -11.292979 -27.841537 0.000017 0.000553 -54.551816 120.519275 84.130930 -28.328835 0.000023 0.000023 -0.000323 -0.000045 0.000006 -2.464407 -1.573825 2.682342 -42.464854 -156.942680 2.024633 -3.215223 -1.872478 1.924613 146.928284 34.103165 35.508145 -2.654972 -1.527894 1.513061 152.322876 27.765463 -23.152953 -2.018827 -1.152017 1.108054 0.000001 -0.000000 0.000002 -9.108394 -0.517575 2.260163 107.003554 17.350373 -23.366644 -3.700063 0.000300 0.001532 104.020168 14.747454 -18.786193 -2.850084 0.000360 -0.000215 103.039776 11.292721 -14.179177 -2.772185 -0.000016 -0.000027 -0.000000 -0.000001 -0.000000 -9.532609 0.000251 0.000290 103.022762 17.856466 -22.534206 -3.700089 0.000318 0.004018 103.117634 13.438829 -16.764653 -2.950058 0.000333 -0.001725 105.553634 11.397410 -14.957582 -2.946619 0.000001 -0.000151 -0.000000 -0.000000 0.000001 -9.103725 -0.042779 -1.864809 101.657845 19.748280 -24.063460 -3.379350 0.000308 -0.000756 103.307424 11.122826 -14.056598 -2.889752 0.000344 0.000693 109.399365 6.797356 -9.653343 -2.638806 -0.000016 0.000939 0.000000 0.000000 0.000002 -8.076772 -0.486393 -3.805982 95.701503 20.663639 -22.604984 -3.600046 0.000297 -0.003480 98.888565 10.290617 -11.589357 -2.100032 0.000321 -0.005419 102.790911 5.014123 -6.005361 -2.115775 -0.000026 -0.003683 -0.000001 -0.000000 -0.000007 4.570446 11.014691 -2.160851 -0.000018 0.000010 -0.000021 10.592360 -0.524565 -2.232250 67.714332 19.816851 -13.367993 27.841812 0.000084 -0.000207 94.420986 -64.718044 68.783031 28.328838 -0.000029 0.000022 0.000021 -0.000088 -0.000000 2.466258 -1.575933 2.681814 16.468363 184.067219 -128.673647 3.217883 -1.871912 1.916470 163.739456 -14.457265 65.681722 2.656114 -1.528692 1.514488 141.706987 -26.421294 61.699387 2.020895 -1.154078 1.115155 -0.000000 0.000006 0.000004 9.109396 -0.517861 2.259747 86.945849 -20.500231 19.444232 3.700050 0.000169 -0.000473 87.348475 -12.984208 12.417650 2.850055 0.000191 0.000197 85.335127 -8.999072 8.296092 2.774881 -0.000013 -0.000022 0.000001 0.000001 -0.000001 9.533484 0.000190 -0.000054 85.495650 -19.991465 18.497204 3.700050 0.000189 -0.000381 90.198706 -10.178193 10.210746 2.950039 0.000200 -0.000211 89.602226 -8.625820 8.569148 2.952873 -0.000028 0.000064 -0.000000 -0.000000 0.000003 9.104606 -0.042862 -1.865197 84.240644 -18.898536 17.118324 3.150052 0.000197 -0.000099 91.215353 -12.290313 12.553601 2.950014 0.000195 -0.000092 91.476286 -9.164714 9.404633 2.644337 0.000018 0.000059 -0.000001 -0.000001 -0.000002 8.077860 -0.486729 -3.806360 77.586250 -20.345288 16.909960 3.600018 0.000179 0.014570 77.325644 -17.052083 14.107616 2.100047 0.000152 0.007558 77.776068 -11.894866 9.996833 2.125495 -0.000015 0.007512 0.000002 -0.000001 0.000000 -8.207786 -6.751667 -1.599560 -0.077001 -0.000003 0.000080 -0.000002 -44.370110 0.345938 0.153719 -0.000000 -0.000000 0.000000 -44.423679 -3.043532 -0.076700 0.000000 -0.000002 -0.000006 -8.728667 10.710559 -0.000009 -0.000000 -0.000000 -0.000001 -0.000679 9.278123 0.000000 -0.000000 -0.000000 8.207792 -6.751710 -1.599556 -0.074518 -0.000003 0.000081 -0.000002 -44.370014 0.346960 0.148822 0.000002 0.000000 -0.000001 -44.423664 -3.044403 -0.074314 0.000000 -0.000002 -0.000004 -8.728671 10.710558 0.000007 -0.000000 -0.000000 0.000000 -0.000680 9.278137 -0.000000 0.000000 -0.000001 
0.000006 104.270477 1.554256 0.000010 0.000003 -0.000113 -0.000005 10.181587 0.131522 0.000001 -0.000003 0.000084 -0.000000 9.893967 -1.470711 0.000001 0.000000 -0.000000 -0.000000 9.220802 -1.370642 0.000000 -0.000000 -0.000000 0.000001 16.740433 -2.049030 0.000000 -0.000000 -0.000000 0.000000 9.617859 1.685014 0.000000 0.000000 0.000000 0.000002 22.037384 7.501101 0.000000 -0.000000 0.000000 -4.569968 11.014880 -2.160881 0.000008 0.000001 -0.000038 -10.592876 -0.524760 -2.231916 73.211739 27.576067 -20.662113 -27.841522 -0.000000 0.000528 -53.657071 115.010509 76.902425 -28.328825 0.000004 0.000031 -0.000322 -0.000043 0.000006 -2.464419 -1.573821 2.682355 -42.748108 -157.442103 1.512948 -3.215220 -1.872465 1.924607 146.577308 34.144758 37.008769 -2.654966 -1.527858 1.513056 152.517223 27.786097 -22.875202 -2.018830 -1.152017 1.108068 -0.000003 -0.000003 0.000000 -9.108405 -0.517564 2.260177 107.338527 17.193569 -23.296807 -3.700053 0.000314 0.001558 103.875552 14.471209 -18.389123 -2.850069 0.000362 -0.000224 103.175465 10.987166 -13.830150 -2.772168 -0.000018 -0.000020 -0.000001 -0.000000 -0.000001 -9.532600 0.000264 0.000299 102.965204 17.571410 -22.157882 -3.700070 0.000317 0.004017 103.369101 13.052264 -16.354464 -2.950076 0.000342 -0.001737 106.253066 11.117890 -14.776590 -2.946633 0.000000 -0.000152 0.000000 -0.000001 0.000000 -9.103714 -0.042771 -1.864817 101.344011 19.117334 -23.173956 -3.379332 0.000318 -0.000762 103.355037 10.760090 -13.611946 -2.889760 0.000347 0.000706 109.757397 6.810051 -9.735291 -2.638822 -0.000016 0.000939 -0.000000 -0.000001 0.000002 -8.076784 -0.486400 -3.805976 95.554415 19.850357 -21.658962 -3.600070 0.000287 -0.003464 98.792935 10.011054 -11.246130 -2.100019 0.000332 -0.005443 103.190696 5.090687 -6.144585 -2.115793 -0.000068 -0.003678 0.000000 -0.000000 -0.000002 4.570446 11.014691 -2.160851 -0.000018 0.000010 -0.000021 10.592361 -0.524544 -2.232288 66.829207 8.620900 -5.693592 27.841810 0.000086 -0.000231 95.724425 -66.817364 72.185906 28.328869 -0.000013 0.000018 0.000021 -0.000088 0.000000 2.466258 -1.575999 2.681809 15.170012 176.187762 -117.664543 3.217870 -1.871912 1.916456 161.609215 -16.476599 62.693726 2.656102 -1.528661 1.514477 141.169273 -26.967185 55.984745 2.020902 -1.154073 1.115156 -0.000000 0.000001 0.000004 9.109396 -0.517833 2.259752 94.587315 -19.026375 20.567723 3.700045 0.000189 -0.000476 91.153458 -12.896328 13.173548 2.850050 0.000214 0.000195 87.527160 -9.869817 9.453503 2.774877 -0.000047 -0.000026 0.000001 0.000000 0.000001 9.533482 0.000212 -0.000082 88.074852 -18.801270 18.181689 3.700044 0.000186 -0.000386 91.165574 -11.032911 11.255534 2.950036 0.000192 -0.000217 90.579073 -8.989141 9.082914 2.952881 -0.000018 0.000068 0.000001 0.000003 -0.000000 9.104605 -0.042854 -1.865203 86.510090 -18.331210 17.266023 3.150056 0.000185 -0.000077 92.062877 -14.206858 14.724112 2.950019 0.000191 -0.000078 91.790120 -10.504963 10.838241 2.644325 0.000037 0.000056 -0.000002 -0.000003 0.000000 8.077854 -0.486730 -3.806412 78.394377 -20.790732 17.520776 3.600019 0.000155 0.014578 76.691495 -18.636716 15.221894 2.100034 0.000168 0.007534 76.365756 -12.472373 10.207941 2.125511 -0.000014 0.007511 0.000001 0.000000 -0.000003 -8.207786 -6.751667 -1.599560 -0.077001 -0.000003 0.000080 -0.000002 -44.370110 0.345938 0.153719 -0.000000 -0.000000 0.000000 -44.423679 -3.043532 -0.076700 0.000000 -0.000002 -0.000006 -8.728667 10.710559 -0.000009 -0.000000 -0.000000 -0.000001 -0.000679 9.278123 0.000000 -0.000000 -0.000000 8.207792 -6.751710 -1.599556 -0.074518 -0.000003 0.000081 -0.000002 -44.370014 0.346960 0.148822 0.000002 0.000000 -0.000001 -44.423664 -3.044403 -0.074314 0.000000 -0.000002 -0.000004 -8.728671 10.710558 0.000007 -0.000000 -0.000000 0.000000 -0.000680 9.278137 -0.000000 0.000000 -0.000001 
